Coordinates
version=1
nRows=6
nColumns=36
inDegrees=yes

Units are S.I. units (second, meters, Newtons, ...)
If the header above contains a line with 'inDegrees', this indicates whether rotational values are in degrees (yes) or radians (no).

endheader
time	pelvis_tilt	pelvis_list	pelvis_rotation	pelvis_tx	pelvis_ty	pelvis_tz	hip_flexion_r	hip_adduction_r	hip_rotation_r	knee_angle_r	knee_angle_r_beta	ankle_angle_r	subtalar_angle_r	mtp_angle_r	hip_flexion_l	hip_adduction_l	hip_rotation_l	knee_angle_l	knee_angle_l_beta	ankle_angle_l	subtalar_angle_l	mtp_angle_l	lumbar_extension	lumbar_bending	lumbar_rotation	arm_flex_r	arm_add_r	arm_rot_r	elbow_flex_r	pro_sup_r	arm_flex_l	arm_add_l	arm_rot_l	elbow_flex_l	pro_sup_l
      4.46250000	    -11.10292440	     -1.00673281	     11.69210545	      0.92884890	      1.04718336	     -0.05404939	     25.83903664	    -10.96031784	      2.92437939	      5.91894562	      0.10330509	     -2.18809254	    -16.12756211	     -7.49999987	     -8.39846622	     -4.47196651	      0.43781596	     13.08785733	      0.22842620	     -2.21807977	     -4.73370338	     -7.49999987	     -6.75044159	      5.56730025	     -7.00757095	     -9.76034094	    -20.34809413	     16.69647638	     47.78382536	     77.66169955	     -7.43677408	    -27.32367115	     23.65041968	     26.80495934	     48.71179580
      4.46666670	    -11.39167032	     -0.99314219	     11.76141397	      0.93255902	      1.04070007	     -0.05113885	     26.24951940	    -10.85324229	      3.45063784	      6.43975304	      0.11239489	     -2.90730286	    -17.20409195	     -7.49999987	     -7.77717616	     -4.61641944	      0.66708797	     14.02143147	      0.24472015	     -2.23405500	     -5.21574645	     -7.49999987	     -6.20668768	      5.38149048	     -6.61832948	     -9.87489463	    -19.99050373	     15.84489881	     48.50969253	     77.58425979	     -6.53812835	    -27.15702808	     21.02097930	     27.01701223	     48.75363330
      4.47083330	    -11.56649145	     -0.93345293	     11.84113717	      0.93893146	      1.03297723	     -0.04855991	     26.47835489	    -10.77950576	      3.72840269	      6.94311878	      0.12118028	     -3.38464249	    -17.92579277	     -7.49999987	     -7.23719273	     -4.77852009	      0.80141910	     15.16095120	      0.26460852	     -2.20413769	     -5.71270494	     -7.49999987	     -5.80830384	      5.11219336	     -6.30825463	    -10.13120619	    -19.79465820	     15.28754382	     49.69075826	     77.40383816	     -6.08710060	    -27.28745822	     18.53527285	     27.93973354	     49.10802452
      4.47500000	    -11.83010210	     -0.91618143	     11.98661880	      0.94123810	      1.03359058	     -0.04649175	     26.81036546	    -10.71501590	      3.84437877	      7.42435225	      0.12957939	     -4.05527752	    -18.81041650	     -7.49999987	     -6.54013355	     -4.98271291	      0.83910470	     16.29588959	      0.28441693	     -2.30222285	     -6.08441465	     -7.49999987	     -5.29702562	      4.90092380	     -6.16902470	     -9.98708381	    -19.57423590	     14.94208345	     50.11722993	     77.44741187	     -5.52563560	    -27.18882399	     16.11192187	     28.69793051	     49.72320498
      4.47916670	    -11.86300947	     -0.91255262	     12.18226063	      0.94694475	      1.03136394	     -0.04621624	     26.82661040	    -10.68246031	      3.60198358	      7.75712244	      0.13538733	     -4.28907513	    -19.01754084	     -7.49999987	     -6.16762268	     -5.24182002	      0.75167215	     17.34059122	      0.30265041	     -2.41450875	     -6.26762122	     -7.49999987	     -5.04932306	      4.79951981	     -5.98237479	     -9.75364478	    -19.54681430	     15.08048193	     50.46144637	     77.57282295	     -4.69936946	    -27.19637021	     15.68176610	     29.18954114	     49.71824589
      4.48333330	    -12.24356421	     -1.02041086	     12.37267916	      0.95402236	      1.03022749	     -0.04649495	     27.22787128	    -10.58673224	      3.69800694	      8.20461334	      0.14319752	     -4.89112798	    -19.77550903	     -7.49999987	     -5.49694401	     -5.50177954	      0.81242279	     18.37376911	      0.32068277	     -2.46824187	     -6.74095304	     -7.49999987	     -4.25323750	      4.67884437	     -5.76479732	    -10.06257278	    -19.64857378	     15.32673587	     51.27788736	     77.90440468	     -4.13732558	    -27.00635900	     14.32832345	     29.91611726	     49.71289937
